HIERARCHY
ROOT Hips
{
  OFFSET 5.80788e-005 67.184 3.4734
  CHANNELS 6 Xposition Yposition Zposition Zrotation Xrotation Yrotation
  JOINT Chest
  {
    OFFSET 0 8.7983 -4.7612
    CHANNELS 6 Xposition Yposition Zposition Zrotation Xrotation Yrotation
    JOINT Chest2
    {
      OFFSET 0 8.0291 0.4195
      CHANNELS 6 Xposition Yposition Zposition Zrotation Xrotation Yrotation
      JOINT Chest3
      {
        OFFSET 0 9.9351 -2.2114
        CHANNELS 6 Xposition Yposition Zposition Zrotation Xrotation Yrotation
        JOINT Neck
        {
          OFFSET 0 22.3885 -0.4656
          CHANNELS 6 Xposition Yposition Zposition Zrotation Xrotation Yrotation
          JOINT Head
          {
            OFFSET -0.0001 12.643 3.4389
            CHANNELS 6 Xposition Yposition Zposition Zrotation Xrotation Yrotation
            End Site
            {
              OFFSET 0.0001 17.6655 0.5274
            }
          }
        }
        JOINT LeftCollar
        {
          OFFSET 2.2603 21.606 7.4023
          CHANNELS 6 Xposition Yposition Zposition Zrotation Xrotation Yrotation
          JOINT LeftShoulder
          {
            OFFSET 13.5163 -1.1332 -5.0146
            CHANNELS 6 Xposition Yposition Zposition Zrotation Xrotation Yrotation
            JOINT LeftElbow
            {
              OFFSET -0.0995 -28.05 -0.2431
              CHANNELS 6 Xposition Yposition Zposition Zrotation Xrotation Yrotation
              JOINT LeftWrist
              {
                OFFSET 0.0679 -23.3996 -0.1402
                CHANNELS 6 Xposition Yposition Zposition Zrotation Xrotation Yrotation
                JOINT LeftFinger1
                {
                  OFFSET 0.7932 -9.069 2.5189
                  CHANNELS 6 Xposition Yposition Zposition Zrotation Xrotation Yrotation
                  JOINT LeftFinger11
                  {
                    OFFSET -0.8272 -3.3923 0.5977
                    CHANNELS 6 Xposition Yposition Zposition Zrotation Xrotation Yrotation
                    JOINT LeftFinger12
                    {
                      OFFSET -0.5649 -2.3158 0.4082
                      CHANNELS 6 Xposition Yposition Zposition Zrotation Xrotation Yrotation
                      End Site
                      {
                        OFFSET -0.4919 -1.6479 0.2673
                      }
                    }
                  }
                }
                JOINT LeftFinger2
                {
                  OFFSET 0.9159 -9.2044 0.2193
                  CHANNELS 6 Xposition Yposition Zposition Zrotation Xrotation Yrotation
                  JOINT LeftFinger21
                  {
                    OFFSET 0.0117 -4.1944 -0.0248
                    CHANNELS 6 Xposition Yposition Zposition Zrotation Xrotation Yrotation
                    JOINT LeftFinger22
                    {
                      OFFSET 0.0071 -2.3249 -0.0142
                      CHANNELS 6 Xposition Yposition Zposition Zrotation Xrotation Yrotation
                      End Site
                      {
                        OFFSET -0.1475 -2.0882 0.0028
                      }
                    }
                  }
                }
                JOINT LeftFinger3
                {
                  OFFSET 0.6113 -8.7231 -2.0637
                  CHANNELS 6 Xposition Yposition Zposition Zrotation Xrotation Yrotation
                  JOINT LeftFinger31
                  {
                    OFFSET -0.1927 -3.8059 -0.2383
                    CHANNELS 6 Xposition Yposition Zposition Zrotation Xrotation Yrotation
                    JOINT LeftFinger32
                    {
                      OFFSET -0.1091 -2.1688 -0.1362
                      CHANNELS 6 Xposition Yposition Zposition Zrotation Xrotation Yrotation
                      End Site
                      {
                        OFFSET -0.2358 -1.9176 -0.0906
                      }
                    }
                  }
                }
                JOINT LeftFinger4
                {
                  OFFSET -0.6151 -8.0947 -3.5641
                  CHANNELS 6 Xposition Yposition Zposition Zrotation Xrotation Yrotation
                  JOINT LeftFinger41
                  {
                    OFFSET -0.4882 -2.341 -0.6462
                    CHANNELS 6 Xposition Yposition Zposition Zrotation Xrotation Yrotation
                    JOINT LeftFinger42
                    {
                      OFFSET -0.3575 -1.7167 -0.4742
                      CHANNELS 6 Xposition Yposition Zposition Zrotation Xrotation Yrotation
                      End Site
                      {
                        OFFSET -0.4187 -1.5237 -0.3496
                      }
                    }
                  }
                }
                JOINT LeftFinger0
                {
                  OFFSET -1.42 -1.8761 1.4223
                  CHANNELS 6 Xposition Yposition Zposition Zrotation Xrotation Yrotation
                  JOINT LeftFinger01
                  {
                    OFFSET -1.1471 -3.4929 2.6334
                    CHANNELS 6 Xposition Yposition Zposition Zrotation Xrotation Yrotation
                    JOINT LeftFinger02
                    {
                      OFFSET -0.823 -2.3 1.6571
                      CHANNELS 6 Xposition Yposition Zposition Zrotation Xrotation Yrotation
                      End Site
                      {
                        OFFSET -0.5822 -1.6914 1.1582
                      }
                    }
                  }
                }
              }
            }
          }
        }
        JOINT RightCollar
        {
          OFFSET -2.2603 21.606 7.4023
          CHANNELS 6 Xposition Yposition Zposition Zrotation Xrotation Yrotation
          JOINT RightShoulder
          {
            OFFSET -13.5187 -1.1334 -5.0155
            CHANNELS 6 Xposition Yposition Zposition Zrotation Xrotation Yrotation
            JOINT RightElbow
            {
              OFFSET 0.0994 -28.0499 -0.2431
              CHANNELS 6 Xposition Yposition Zposition Zrotation Xrotation Yrotation
              JOINT RightWrist
              {
                OFFSET -0.0679 -23.3996 -0.1402
                CHANNELS 6 Xposition Yposition Zposition Zrotation Xrotation Yrotation
                JOINT RightFinger1
                {
                  OFFSET -0.7932 -9.0691 2.5189
                  CHANNELS 6 Xposition Yposition Zposition Zrotation Xrotation Yrotation
                  JOINT RightFinger11
                  {
                    OFFSET 0.8272 -3.3923 0.5977
                    CHANNELS 6 Xposition Yposition Zposition Zrotation Xrotation Yrotation
                    JOINT RightFinger12
                    {
                      OFFSET 0.565 -2.3158 0.4082
                      CHANNELS 6 Xposition Yposition Zposition Zrotation Xrotation Yrotation
                      End Site
                      {
                        OFFSET 0.4919 -1.6479 0.2673
                      }
                    }
                  }
                }
                JOINT RightFinger2
                {
                  OFFSET -0.916 -9.2044 0.2193
                  CHANNELS 6 Xposition Yposition Zposition Zrotation Xrotation Yrotation
                  JOINT RightFinger21
                  {
                    OFFSET -0.0117 -4.1944 -0.0248
                    CHANNELS 6 Xposition Yposition Zposition Zrotation Xrotation Yrotation
                    JOINT RightFinger22
                    {
                      OFFSET -0.0071 -2.3249 -0.0142
                      CHANNELS 6 Xposition Yposition Zposition Zrotation Xrotation Yrotation
                      End Site
                      {
                        OFFSET 0.1475 -2.0882 0.0028
                      }
                    }
                  }
                }
                JOINT RightFinger3
                {
                  OFFSET -0.6113 -8.7231 -2.0637
                  CHANNELS 6 Xposition Yposition Zposition Zrotation Xrotation Yrotation
                  JOINT RightFinger31
                  {
                    OFFSET 0.1927 -3.8059 -0.2383
                    CHANNELS 6 Xposition Yposition Zposition Zrotation Xrotation Yrotation
                    JOINT RightFinger32
                    {
                      OFFSET 0.1091 -2.1688 -0.1362
                      CHANNELS 6 Xposition Yposition Zposition Zrotation Xrotation Yrotation
                      End Site
                      {
                        OFFSET 0.2358 -1.9176 -0.0906
                      }
                    }
                  }
                }
                JOINT RightFinger4
                {
                  OFFSET 0.6151 -8.0947 -3.564
                  CHANNELS 6 Xposition Yposition Zposition Zrotation Xrotation Yrotation
                  JOINT RightFinger41
                  {
                    OFFSET 0.4882 -2.341 -0.6462
                    CHANNELS 6 Xposition Yposition Zposition Zrotation Xrotation Yrotation
                    JOINT RightFinger42
                    {
                      OFFSET 0.3574 -1.7166 -0.4742
                      CHANNELS 6 Xposition Yposition Zposition Zrotation Xrotation Yrotation
                      End Site
                      {
                        OFFSET 0.4187 -1.5237 -0.3496
                      }
                    }
                  }
                }
                JOINT RightFinger0
                {
                  OFFSET 1.4199 -1.8761 1.4221
                  CHANNELS 6 Xposition Yposition Zposition Zrotation Xrotation Yrotation
                  JOINT RightFinger01
                  {
                    OFFSET 1.1472 -3.4929 2.6336
                    CHANNELS 6 Xposition Yposition Zposition Zrotation Xrotation Yrotation
                    JOINT RightFinger02
                    {
                      OFFSET 0.8229 -2.3 1.6571
                      CHANNELS 6 Xposition Yposition Zposition Zrotation Xrotation Yrotation
                      End Site
                      {
                        OFFSET 0.5822 -1.6914 1.1582
                      }
                    }
                  }
                }
              }
            }
          }
        }
      }
    }
  }
  JOINT RightHip
  {
    OFFSET -9.412 3.9771 -0.7758
    CHANNELS 6 Xposition Yposition Zposition Zrotation Xrotation Yrotation
    JOINT RightKnee
    {
      OFFSET -0.7531 -40.938 0
      CHANNELS 6 Xposition Yposition Zposition Zrotation Xrotation Yrotation
      JOINT RightAnkle
      {
        OFFSET 0 -40.1986 0
        CHANNELS 6 Xposition Yposition Zposition Zrotation Xrotation Yrotation
        JOINT RightToe
        {
          OFFSET 0 -4.4182 9.239
          CHANNELS 6 Xposition Yposition Zposition Zrotation Xrotation Yrotation
          End Site
          {
            OFFSET 0 0 6.1981
          }
        }
      }
    }
  }
  JOINT LeftHip
  {
    OFFSET 9.4119 3.9773 -0.7758
    CHANNELS 6 Xposition Yposition Zposition Zrotation Xrotation Yrotation
    JOINT LeftKnee
    {
      OFFSET 0.7532 -40.9383 0
      CHANNELS 6 Xposition Yposition Zposition Zrotation Xrotation Yrotation
      JOINT LeftAnkle
      {
        OFFSET 0 -40.1986 0
        CHANNELS 6 Xposition Yposition Zposition Zrotation Xrotation Yrotation
        JOINT LeftToe
        {
          OFFSET 0 -4.4182 9.239
          CHANNELS 6 Xposition Yposition Zposition Zrotation Xrotation Yrotation
          End Site
          {
            OFFSET 0 0 6.1981
          }
        }
      }
    }
  }
}
MOTION
Frames:	4
Frame Time:	0.0333333
5.80788e-005 67.184 3.4734 0 0 -0 0 8.7983 -4.7612 0 0 -0 0 8.0291 0.4195 0 0 -0 0 9.9351 -2.2114 0 0 -0 0 22.3885 -0.4656 0 0 -0 -0.0001 12.643 3.4389 0 0 -0 2.2603 21.606 7.4023 0 0 -12.5014 13.5163 -1.1332 -5.0146 88.1196 14.2451 10.6914 -0.0995 -28.05 -0.2431 -0.00160068 -0.00239207 0.000740045 0.0679 -23.3996 -0.1402 -8.4365e-005 7.00714e-005 -9.52055e-007 0.7932 -9.069 2.5189 9.93923e-017 -1.98785e-016 -1.59028e-015 -0.8272 -3.3923 0.5977 9.93923e-017 -5.96354e-016 -1.59028e-015 -0.5649 -2.3158 0.4082 -9.93923e-017 -5.96354e-016 -1.59028e-015 0.9159 -9.2044 0.2193 9.93923e-017 -1.98785e-016 -1.59028e-015 0.0117 -4.1944 -0.0248 -0.0128176 0.00232552 8.52707e-005 0.0071 -2.3249 -0.0142 9.93923e-017 5.96354e-016 -0 0.6113 -8.7231 -2.0637 9.93923e-017 -1.98785e-016 -1.59028e-015 -0.1927 -3.8059 -0.2383 -0.0160551 0.00299681 0.000857156 -0.1091 -2.1688 -0.1362 -2.48481e-016 0 3.18055e-015 -0.6151 -8.0947 -3.5641 9.93923e-017 -1.98785e-016 -1.59028e-015 -0.4882 -2.341 -0.6462 -0.0125865 0.0031206 0.00282719 -0.3575 -1.7167 -0.4742 0 1.98785e-016 -0 -1.42 -1.8761 1.4223 9.93923e-017 -1.98785e-016 -1.59028e-015 -1.1471 -3.4929 2.6334 9.93923e-017 -5.96354e-016 -1.59028e-015 -0.823 -2.3 1.6571 -9.93923e-017 -5.96354e-016 -1.59028e-015 -2.2603 21.606 7.4023 -0.865644 0.16582 7.03859 -13.5187 -1.1334 -5.0155 -88.0329 10.2057 -10.5567 0.0994 -28.0499 -0.2431 0.0015593 -0.00248883 -0.000788628 -0.0679 -23.3996 -0.1402 7.87605e-005 4.10553e-005 1.24965e-005 -0.7932 -9.0691 2.5189 -3.97569e-016 -7.95139e-016 3.18055e-015 0.8272 -3.3923 0.5977 -1.98785e-016 -3.97569e-016 3.18055e-015 0.565 -2.3158 0.4082 -1.98785e-016 0 3.18055e-015 -0.916 -9.2044 0.2193 -3.97569e-016 -7.95139e-016 3.18055e-015 -0.0117 -4.1944 -0.0248 0.0129473 0.00231697 -8.70038e-005 -0.0071 -2.3249 -0.0142 9.93923e-017 -7.95139e-016 1.59028e-015 -0.6113 -8.7231 -2.0637 -3.97569e-016 -7.95139e-016 3.18055e-015 0.1927 -3.8059 -0.2383 0.0163314 0.00303369 -0.000872333 0.1091 -2.1688 -0.1362 3.97569e-016 7.95139e-016 -3.18055e-015 0.6151 -8.0947 -3.564 -3.97569e-016 -7.95139e-016 3.18055e-015 0.4882 -2.341 -0.6462 0.0145763 0.00367772 -0.00326275 0.3574 -1.7166 -0.4742 9.93923e-017 -3.97569e-016 -0 1.4199 -1.8761 1.4221 -3.97569e-016 -7.95139e-016 3.18055e-015 1.1472 -3.4929 2.6336 -1.98785e-016 -3.97569e-016 3.18055e-015 0.8229 -2.3 1.6571 -1.98785e-016 0 3.18055e-015 -9.412 3.9771 -0.7758 3.42485 1.36937 -0.0640303 -0.7531 -40.938 0 0.000136572 0.69354 0.00145564 1.77636e-015 -40.1986 -1.11022e-016 -3.42573 -2.06297 -0.0607933 8.88178e-016 -4.4182 9.239 -3.19502e-024 0 -1.48106e-024 9.4119 3.9773 -0.7758 -3.42498 1.36123 0.0639712 0.7532 -40.9383 2.22045e-016 -6.769e-005 0.712612 -0.0012277 8.88179e-016 -40.1986 0 3.42582 -2.07388 0.0612819 -8.88178e-016 -4.4182 9.239 2.55305e-023 0 -2.31416e-026 
3.8997 24.1371 -37.6841 133.329 65.9141 -1.25522e-005 1.77636e-015 8.7983 -4.7612 -0.0106884 -0.321033 -0.207487 0 8.0291 0.4195 -0.0225825 -0.642015 -0.415019 1.77636e-015 9.9351 -2.2114 -0.0225806 -0.642032 -0.415026 1.77636e-015 22.3885 -0.4656 -0.000238625 32.592 0.000481834 -0.0001 12.643 3.4389 3.3967e-006 -29.4009 1.31366e-005 2.2603 21.606 7.4023 -14.1058 2.5483 0.708747 13.5163 -1.1332 -5.0146 82.3043 -43.5806 3.62291 -0.0995 -28.05 -0.2431 -11.9132 -29.8349 6.52996 0.0679 -23.3996 -0.1402 -20.9816 -24.7253 24.5992 0.7932 -9.069 2.5189 3.97569e-015 0 3.18055e-015 -0.8272 -3.3923 0.5977 1.59028e-015 1.59028e-015 9.54166e-015 -0.5649 -2.3158 0.4082 3.18055e-015 -3.18055e-015 -3.18055e-015 0.9159 -9.2044 0.2193 3.97569e-015 0 3.18055e-015 0.0117 -4.1944 -0.0248 -0.0128865 0.00233893 8.27334e-005 0.0071 -2.3249 -0.0142 -4.77083e-015 -1.59028e-015 -0 0.6113 -8.7231 -2.0637 3.97569e-015 0 3.18055e-015 -0.1927 -3.8059 -0.2383 -0.0160317 0.00299212 0.000858336 -0.1091 -2.1688 -0.1362 -1.59028e-015 0 -6.36111e-015 -0.6151 -8.0947 -3.5641 3.97569e-015 0 3.18055e-015 -0.4882 -2.341 -0.6462 -0.0125599 0.00311549 0.00282465 -0.3575 -1.7167 -0.4742 3.97569e-015 1.59028e-015 3.18055e-015 -1.42 -1.8761 1.4223 3.97569e-015 0 3.18055e-015 -1.1471 -3.4929 2.6334 1.59028e-015 1.59028e-015 9.54166e-015 -0.823 -2.3 1.6571 3.18055e-015 -3.18055e-015 -3.18055e-015 -2.2603 21.606 7.4023 13.2589 2.60053 -5.92173 -13.5187 -1.1334 -5.0155 -82.4582 -47.5626 -3.92561 0.0994 -28.0499 -0.2431 11.9339 -29.671 -6.81023 -0.0679 -23.3996 -0.1402 22.3997 -23.989 -23.8481 -0.7932 -9.0691 2.5189 2.58923e-007 -3.93325e-006 1.5392e-006 0.8272 -3.3923 0.5977 1.76556e-031 3.18055e-015 -3.18055e-015 0.565 -2.3158 0.4082 -5.1684e-015 0 -3.18055e-015 -0.916 -9.2044 0.2193 2.58923e-007 -3.93325e-006 1.5392e-006 -0.0117 -4.1944 -0.0248 0.0129869 0.00232452 -8.71055e-005 -0.0071 -2.3249 -0.0142 -2.38542e-015 -1.78042e-006 -0 -0.6113 -8.7231 -2.0637 2.58923e-007 -3.93325e-006 1.5392e-006 0.1927 -3.8059 -0.2383 0.0163078 0.00302893 -0.000872233 0.1091 -2.1688 -0.1362 2.78299e-015 -6.36111e-015 6.36111e-015 0.6151 -8.0947 -3.564 2.58923e-007 -3.93325e-006 1.5392e-006 0.4882 -2.341 -0.6462 0.0146173 0.00368964 -0.00327352 0.3574 -1.7166 -0.4742 -3.57812e-015 4.77083e-015 -0 1.4199 -1.8761 1.4221 2.58923e-007 -3.93325e-006 1.5392e-006 1.1472 -3.4929 2.6336 1.76556e-031 3.18055e-015 -3.18055e-015 0.8229 -2.3 1.6571 -5.1684e-015 0 -3.18055e-015 -9.412 3.9771 -0.7758 -31.3919 -19.9949 -23.4201 -0.7531 -40.938 3.55271e-015 -11.1791 54.4247 14.4905 -3.55271e-015 -40.1986 -7.10543e-015 -16.2874 30.9158 19.3723 -3.55271e-015 -4.4182 9.239 -3.29065e-006 -5.27234e-006 9.99083e-006 9.4119 3.9773 -0.7758 31.0719 -20.4672 23.4609 0.7532 -40.9383 5.32907e-015 10.8276 53.6622 -14.0638 0 -40.1986 7.10543e-015 16.7793 32.0849 -19.6335 7.10543e-015 -4.4182 9.239 2.35786e-006 -5.99342e-006 -1.34432e-006 
-1.75842 -2.84538 -54.3243 13.3268 84.4214 180 0 8.7983 -4.7612 -0.0264841 -0.403185 -0.300255 4.44089e-016 8.0291 0.4195 -0.0550724 -0.806201 -0.600712 4.44089e-016 9.9351 -2.2114 -0.0550745 -0.806224 -0.600711 0 22.3885 -0.4656 0.000295857 47.2572 -0.000435489 -0.0001 12.643 3.4389 4.1066e-006 -43.7675 3.20737e-006 2.2603 21.606 7.4023 -20.7263 3.36728 6.77783 13.5163 -1.1332 -5.0146 81.6461 -69.63 2.18191 -0.0995 -28.05 -0.2431 -18.9937 -43.4281 7.40931 0.0679 -23.3996 -0.1402 -30.7408 -35.8263 34.9404 0.7932 -9.069 2.5189 -1.88845e-015 7.95139e-016 -3.18055e-015 -0.8272 -3.3923 0.5977 -8.54774e-015 2.38542e-015 -3.18055e-015 -0.5649 -2.3158 0.4082 9.93923e-016 7.95139e-016 -0 0.9159 -9.2044 0.2193 -1.88845e-015 7.95139e-016 -3.18055e-015 0.0117 -4.1944 -0.0248 -0.0128527 0.00233175 8.68366e-005 0.0071 -2.3249 -0.0142 5.1684e-015 4.77083e-015 -0 0.6113 -8.7231 -2.0637 -1.88845e-015 7.95139e-016 -3.18055e-015 -0.1927 -3.8059 -0.2383 -0.0160469 0.00299547 0.000859706 -0.1091 -2.1688 -0.1362 -3.18055e-015 0 -1.59028e-015 -0.6151 -8.0947 -3.5641 -1.88845e-015 7.95139e-016 -3.18055e-015 -0.4882 -2.341 -0.6462 -0.0125916 0.0031212 0.00282754 -0.3575 -1.7167 -0.4742 1.96587e-006 2.62332e-007 1.31405e-007 -1.42 -1.8761 1.4223 -1.88845e-015 7.95139e-016 -3.18055e-015 -1.1471 -3.4929 2.6334 -8.54774e-015 2.38542e-015 -3.18055e-015 -0.823 -2.3 1.6571 9.93923e-016 7.95139e-016 -0 -2.2603 21.606 7.4023 19.8532 3.38463 -11.8903 -13.5187 -1.1334 -5.0155 -82.4923 -73.576 -3.48386 0.0994 -28.0499 -0.2431 19.0127 -43.1771 -7.79094 -0.0679 -23.3996 -0.1402 32.9453 -34.813 -33.6821 -0.7932 -9.0691 2.5189 -3.12744e-008 4.26313e-007 -4.22714e-007 0.8272 -3.3923 0.5977 8.64713e-015 -1.59028e-015 -2.38542e-015 0.565 -2.3158 0.4082 1.14301e-014 0 -3.18055e-015 -0.916 -9.2044 0.2193 -3.12744e-008 4.26313e-007 -4.22714e-007 -0.0117 -4.1944 -0.0248 0.0129138 0.00230837 -8.67084e-005 -0.0071 -2.3249 -0.0142 1.43125e-014 3.97569e-015 -7.95139e-016 -0.6113 -8.7231 -2.0637 -3.12744e-008 4.26313e-007 -4.22714e-007 0.1927 -3.8059 -0.2383 0.0163359 0.0030323 -0.00087365 0.1091 -2.1688 -0.1362 -3.97569e-016 0 -7.95139e-016 0.6151 -8.0947 -3.564 -3.12744e-008 4.26313e-007 -4.22714e-007 0.4882 -2.341 -0.6462 0.0146146 0.00368689 -0.00326674 0.3574 -1.7166 -0.4742 -1.4459e-006 -1.09543e-006 -6.89173e-007 1.4199 -1.8761 1.4221 -3.12744e-008 4.26313e-007 -4.22714e-007 1.1472 -3.4929 2.6336 8.64713e-015 -1.59028e-015 -2.38542e-015 0.8229 -2.3 1.6571 1.14301e-014 0 -3.18055e-015 -9.412 3.9771 -0.7758 -52.4154 -28.3058 -36.472 -0.7531 -40.938 7.10543e-015 -49.3227 73.4274 50.7933 1.77636e-014 -40.1986 0 -33.4317 43.8358 34.1039 7.10543e-015 -4.4182 9.239 3.64983e-006 -9.73584e-007 -1.1129e-006 9.4119 3.9773 -0.7758 52.2674 -27.7973 36.3163 0.7532 -40.9383 0 48.7223 73.3315 -50.2385 0 -40.1986 -1.42109e-014 33.2293 43.5547 -33.9153 0 -4.4182 9.239 1.92053e-006 -6.01562e-006 3.93005e-006 
-1.0829 3.75738 -50.8093 179.994 88.9936 -5.45927e-007 0 8.7983 -4.7612 -0.0232979 -0.247318 -0.27974 0 8.0291 0.4195 -0.0478046 -0.494577 -0.559595 2.22045e-016 9.9351 -2.2114 -0.0478038 -0.494565 -0.559587 2.22045e-016 22.3885 -0.4656 -0.000423474 43.9989 0.000665387 -0.0001 12.643 3.4389 -4.97713e-007 -43.1028 9.53371e-008 2.2603 21.606 7.4023 -19.0121 2.70876 5.66657 13.5163 -1.1332 -5.0146 81.4014 -63.8403 2.12697 -0.0995 -28.05 -0.2431 -17.6835 -41.1574 7.08302 0.0679 -23.3996 -0.1402 -27.9633 -33.2447 33.0411 0.7932 -9.069 2.5189 -7.34835e-008 4.24631e-007 -9.57621e-007 -0.8272 -3.3923 0.5977 -4.82889e-006 -1.23996e-006 -1.54351e-006 -0.5649 -2.3158 0.4082 -1.14674e-014 4.2591e-007 2.98177e-016 0.9159 -9.2044 0.2193 -7.34835e-008 4.24631e-007 -9.57621e-007 0.0117 -4.1944 -0.0248 -0.0128307 0.00232533 8.31243e-005 0.0071 -2.3249 -0.0142 1.06083e-007 1.27659e-006 1.38324e-006 0.6113 -8.7231 -2.0637 -7.34835e-008 4.24631e-007 -9.57621e-007 -0.1927 -3.8059 -0.2383 -0.0160329 0.00299187 0.000855907 -0.1091 -2.1688 -0.1362 -9.35509e-006 -1.20578e-006 8.49343e-007 -0.6151 -8.0947 -3.5641 -7.34835e-008 4.24631e-007 -9.57621e-007 -0.4882 -2.341 -0.6462 -0.0125259 0.00310602 0.00281332 -0.3575 -1.7167 -0.4742 1.72001e-006 -6.33751e-007 -9.13224e-007 -1.42 -1.8761 1.4223 -7.34835e-008 4.24631e-007 -9.57621e-007 -1.1471 -3.4929 2.6334 -4.82889e-006 -1.23996e-006 -1.54351e-006 -0.823 -2.3 1.6571 -1.14674e-014 4.2591e-007 2.98177e-016 -2.2603 21.606 7.4023 18.1516 2.74617 -10.8249 -13.5187 -1.1334 -5.0155 -81.8829 -67.8002 -2.98369 0.0994 -28.0499 -0.2431 17.686 -40.9085 -7.46068 -0.0679 -23.3996 -0.1402 29.9825 -32.3357 -31.9203 -0.7932 -9.0691 2.5189 -7.3923e-016 0 -0 0.8272 -3.3923 0.5977 9.67247e-008 -6.42187e-007 2.34538e-006 0.565 -2.3158 0.4082 -2.19829e-008 -8.52644e-007 -5.33041e-007 -0.916 -9.2044 0.2193 -7.3923e-016 0 -0 -0.0117 -4.1944 -0.0248 0.0130174 0.00232708 -8.48374e-005 -0.0071 -2.3249 -0.0142 -2.63505e-008 -6.39248e-007 -6.39651e-007 -0.6113 -8.7231 -2.0637 -7.3923e-016 0 -0 0.1927 -3.8059 -0.2383 0.0163556 0.00303614 -0.000871731 0.1091 -2.1688 -0.1362 -2.63418e-008 -6.39249e-007 -6.39651e-007 0.6151 -8.0947 -3.564 -7.3923e-016 0 -0 0.4882 -2.341 -0.6462 0.0145208 0.00366205 -0.00324566 0.3574 -1.7166 -0.4742 8.7784e-009 -4.26797e-007 2.13217e-007 1.4199 -1.8761 1.4221 -7.3923e-016 0 -0 1.1472 -3.4929 2.6336 9.67247e-008 -6.42187e-007 2.34538e-006 0.8229 -2.3 1.6571 -2.19829e-008 -8.52644e-007 -5.33041e-007 -9.412 3.9771 -0.7758 -47.2253 -26.5902 -33.3846 -0.7531 -40.938 7.10543e-015 -35.1798 70.344 37.1136 0 -40.1986 0 -28.8656 41.0928 30.1181 0 -4.4182 9.239 1.98785e-016 5.96052e-008 -6.36111e-015 9.4119 3.9773 -0.7758 47.2188 -26.5941 33.3497 0.7532 -40.9383 7.10543e-015 35.0948 70.3652 -37.0495 -7.10543e-015 -40.1986 0 28.8389 41.1263 -30.085 0 -4.4182 9.239 -4.96962e-017 9.93923e-017 -3.18055e-015 
